<svg width="23" height="23" viewBox="0 0 23 23" fill="none" xmlns="http://www.w3.org/2000/svg">
<path d="M20.1296 8.41964C20.0719 8.24983 19.9658 8.10061 19.8243 7.99043C19.6828 7.88024 19.5122 7.81389 19.3334 7.79959L14.1043 7.38408L11.8415 2.37506C11.7694 2.21373 11.6522 2.07671 11.504 1.98052C11.3557 1.88434 11.1829 1.8331 11.0062 1.83301C10.8295 1.83291 10.6565 1.88395 10.5082 1.97998C10.3599 2.076 10.2425 2.2129 10.1703 2.37415L7.90744 7.38408L2.67829 7.79959C2.5026 7.8135 2.33464 7.87774 2.1945 7.98462C2.05436 8.0915 1.94798 8.23648 1.88809 8.40224C1.82819 8.56799 1.81732 8.74749 1.85677 8.91926C1.89622 9.09103 1.98431 9.2478 2.11053 9.37081L5.97483 13.1379L4.60815 19.0559C4.56666 19.235 4.57996 19.4225 4.64633 19.594C4.7127 19.7655 4.82908 19.913 4.98037 20.0175C5.13166 20.1221 5.31086 20.1787 5.49474 20.1801C5.67861 20.1815 5.85866 20.1276 6.01152 20.0254L11.0059 16.6958L16.0002 20.0254C16.1564 20.1291 16.3407 20.1825 16.5282 20.1784C16.7157 20.1743 16.8974 20.1129 17.049 20.0024C17.2005 19.8919 17.3146 19.7377 17.3758 19.5604C17.4371 19.3832 17.4426 19.1914 17.3916 19.0109L15.714 13.1406L19.8746 9.39649C20.147 9.15067 20.247 8.76727 20.1296 8.41964Z" fill="#B3E3FF"/>
</svg>
