<svg width="141" height="58" viewBox="0 0 141 58" fill="none" xmlns="http://www.w3.org/2000/svg">
<path d="M1.992 38V21.2H5.88V34.832H14.304V38H1.992ZM22.3861 38.192C21.0101 38.192 19.7861 37.904 18.7141 37.328C17.6581 36.752 16.8181 35.968 16.1941 34.976C15.5861 33.968 15.2821 32.824 15.2821 31.544C15.2821 30.248 15.5861 29.104 16.1941 28.112C16.8181 27.104 17.6581 26.32 18.7141 25.76C19.7861 25.184 21.0101 24.896 22.3861 24.896C23.7461 24.896 24.9621 25.184 26.0341 25.76C27.1061 26.32 27.9461 27.096 28.5541 28.088C29.1621 29.08 29.4661 30.232 29.4661 31.544C29.4661 32.824 29.1621 33.968 28.5541 34.976C27.9461 35.968 27.1061 36.752 26.0341 37.328C24.9621 37.904 23.7461 38.192 22.3861 38.192ZM22.3861 35.12C23.0101 35.12 23.5701 34.976 24.0661 34.688C24.5621 34.4 24.9541 33.992 25.2421 33.464C25.5301 32.92 25.6741 32.28 25.6741 31.544C25.6741 30.792 25.5301 30.152 25.2421 29.624C24.9541 29.096 24.5621 28.688 24.0661 28.4C23.5701 28.112 23.0101 27.968 22.3861 27.968C21.7621 27.968 21.2021 28.112 20.7061 28.4C20.2101 28.688 19.8101 29.096 19.5061 29.624C19.2181 30.152 19.0741 30.792 19.0741 31.544C19.0741 32.28 19.2181 32.92 19.5061 33.464C19.8101 33.992 20.2101 34.4 20.7061 34.688C21.2021 34.976 21.7621 35.12 22.3861 35.12ZM38.1406 42.848C36.9246 42.848 35.7486 42.696 34.6126 42.392C33.4926 42.104 32.5566 41.664 31.8046 41.072L33.2926 38.384C33.8366 38.832 34.5246 39.184 35.3566 39.44C36.2046 39.712 37.0366 39.848 37.8526 39.848C39.1806 39.848 40.1406 39.552 40.7326 38.96C41.3406 38.368 41.6446 37.488 41.6446 36.32V34.376L41.8846 31.136L41.8366 27.872V25.088H45.3886V35.84C45.3886 38.24 44.7646 40.008 43.5166 41.144C42.2686 42.28 40.4766 42.848 38.1406 42.848ZM37.5646 37.376C36.3646 37.376 35.2766 37.12 34.3006 36.608C33.3406 36.08 32.5646 35.352 31.9726 34.424C31.3966 33.48 31.1086 32.384 31.1086 31.136C31.1086 29.872 31.3966 28.776 31.9726 27.848C32.5646 26.904 33.3406 26.176 34.3006 25.664C35.2766 25.152 36.3646 24.896 37.5646 24.896C38.6526 24.896 39.6126 25.12 40.4446 25.568C41.2766 26 41.9246 26.68 42.3886 27.608C42.8526 28.52 43.0846 29.696 43.0846 31.136C43.0846 32.56 42.8526 33.736 42.3886 34.664C41.9246 35.576 41.2766 36.256 40.4446 36.704C39.6126 37.152 38.6526 37.376 37.5646 37.376ZM38.3086 34.304C38.9646 34.304 39.5486 34.176 40.0606 33.92C40.5726 33.648 40.9726 33.272 41.2606 32.792C41.5486 32.312 41.6926 31.76 41.6926 31.136C41.6926 30.496 41.5486 29.944 41.2606 29.48C40.9726 29 40.5726 28.632 40.0606 28.376C39.5486 28.104 38.9646 27.968 38.3086 27.968C37.6526 27.968 37.0686 28.104 36.5566 28.376C36.0446 28.632 35.6366 29 35.3326 29.48C35.0446 29.944 34.9006 30.496 34.9006 31.136C34.9006 31.76 35.0446 32.312 35.3326 32.792C35.6366 33.272 36.0446 33.648 36.5566 33.92C37.0686 34.176 37.6526 34.304 38.3086 34.304ZM55.1173 38.192C53.7413 38.192 52.5173 37.904 51.4453 37.328C50.3893 36.752 49.5493 35.968 48.9253 34.976C48.3173 33.968 48.0133 32.824 48.0133 31.544C48.0133 30.248 48.3173 29.104 48.9253 28.112C49.5493 27.104 50.3893 26.32 51.4453 25.76C52.5173 25.184 53.7413 24.896 55.1173 24.896C56.4773 24.896 57.6933 25.184 58.7653 25.76C59.8373 26.32 60.6773 27.096 61.2853 28.088C61.8933 29.08 62.1973 30.232 62.1973 31.544C62.1973 32.824 61.8933 33.968 61.2853 34.976C60.6773 35.968 59.8373 36.752 58.7653 37.328C57.6933 37.904 56.4773 38.192 55.1173 38.192ZM55.1173 35.12C55.7413 35.12 56.3013 34.976 56.7973 34.688C57.2933 34.4 57.6853 33.992 57.9733 33.464C58.2613 32.92 58.4053 32.28 58.4053 31.544C58.4053 30.792 58.2613 30.152 57.9733 29.624C57.6853 29.096 57.2933 28.688 56.7973 28.4C56.3013 28.112 55.7413 27.968 55.1173 27.968C54.4933 27.968 53.9333 28.112 53.4373 28.4C52.9413 28.688 52.5413 29.096 52.2373 29.624C51.9493 30.152 51.8053 30.792 51.8053 31.544C51.8053 32.28 51.9493 32.92 52.2373 33.464C52.5413 33.992 52.9413 34.4 53.4373 34.688C53.9333 34.976 54.4933 35.12 55.1173 35.12ZM65.0639 38V21.2H68.2799L75.4319 33.056H73.7279L80.7599 21.2H83.9519L83.9999 38H80.3519L80.3279 26.792H80.9999L75.3839 36.224H73.6319L67.8959 26.792H68.7119V38H65.0639ZM95.7418 38V35.48L95.5018 34.928V30.416C95.5018 29.616 95.2538 28.992 94.7578 28.544C94.2778 28.096 93.5338 27.872 92.5258 27.872C91.8378 27.872 91.1578 27.984 90.4858 28.208C89.8298 28.416 89.2698 28.704 88.8058 29.072L87.4618 26.456C88.1658 25.96 89.0138 25.576 90.0058 25.304C90.9978 25.032 92.0058 24.896 93.0298 24.896C94.9978 24.896 96.5258 25.36 97.6138 26.288C98.7018 27.216 99.2458 28.664 99.2458 30.632V38H95.7418ZM91.8058 38.192C90.7978 38.192 89.9338 38.024 89.2138 37.688C88.4938 37.336 87.9418 36.864 87.5578 36.272C87.1738 35.68 86.9818 35.016 86.9818 34.28C86.9818 33.512 87.1658 32.84 87.5338 32.264C87.9178 31.688 88.5178 31.24 89.3338 30.92C90.1498 30.584 91.2138 30.416 92.5258 30.416H95.9578V32.6H92.9338C92.0538 32.6 91.4458 32.744 91.1098 33.032C90.7898 33.32 90.6298 33.68 90.6298 34.112C90.6298 34.592 90.8138 34.976 91.1818 35.264C91.5658 35.536 92.0858 35.672 92.7418 35.672C93.3658 35.672 93.9258 35.528 94.4218 35.24C94.9178 34.936 95.2778 34.496 95.5018 33.92L96.0778 35.648C95.8058 36.48 95.3098 37.112 94.5898 37.544C93.8698 37.976 92.9418 38.192 91.8058 38.192ZM102.734 38V25.088H106.31V28.736L105.806 27.68C106.19 26.768 106.806 26.08 107.654 25.616C108.502 25.136 109.534 24.896 110.75 24.896V28.352C110.59 28.336 110.446 28.328 110.318 28.328C110.19 28.312 110.054 28.304 109.91 28.304C108.886 28.304 108.054 28.6 107.414 29.192C106.79 29.768 106.478 30.672 106.478 31.904V38H102.734ZM119.223 38.192C117.831 38.192 116.591 37.912 115.503 37.352C114.415 36.776 113.559 35.984 112.935 34.976C112.327 33.968 112.023 32.824 112.023 31.544C112.023 30.248 112.327 29.104 112.935 28.112C113.559 27.104 114.415 26.32 115.503 25.76C116.591 25.184 117.831 24.896 119.223 24.896C120.583 24.896 121.767 25.184 122.775 25.76C123.783 26.32 124.527 27.128 125.007 28.184L122.103 29.744C121.767 29.136 121.343 28.688 120.831 28.4C120.335 28.112 119.791 27.968 119.199 27.968C118.559 27.968 117.983 28.112 117.471 28.4C116.959 28.688 116.551 29.096 116.247 29.624C115.959 30.152 115.815 30.792 115.815 31.544C115.815 32.296 115.959 32.936 116.247 33.464C116.551 33.992 116.959 34.4 117.471 34.688C117.983 34.976 118.559 35.12 119.199 35.12C119.791 35.12 120.335 34.984 120.831 34.712C121.343 34.424 121.767 33.968 122.103 33.344L125.007 34.928C124.527 35.968 123.783 36.776 122.775 37.352C121.767 37.912 120.583 38.192 119.223 38.192ZM135.182 38V35.48L134.942 34.928V30.416C134.942 29.616 134.694 28.992 134.198 28.544C133.718 28.096 132.974 27.872 131.966 27.872C131.278 27.872 130.598 27.984 129.926 28.208C129.27 28.416 128.71 28.704 128.246 29.072L126.902 26.456C127.606 25.96 128.454 25.576 129.446 25.304C130.438 25.032 131.446 24.896 132.47 24.896C134.438 24.896 135.966 25.36 137.054 26.288C138.142 27.216 138.686 28.664 138.686 30.632V38H135.182ZM131.246 38.192C130.238 38.192 129.374 38.024 128.654 37.688C127.934 37.336 127.382 36.864 126.998 36.272C126.614 35.68 126.422 35.016 126.422 34.28C126.422 33.512 126.606 32.84 126.974 32.264C127.358 31.688 127.958 31.24 128.774 30.92C129.59 30.584 130.654 30.416 131.966 30.416H135.398V32.6H132.374C131.494 32.6 130.886 32.744 130.55 33.032C130.23 33.32 130.07 33.68 130.07 34.112C130.07 34.592 130.254 34.976 130.622 35.264C131.006 35.536 131.526 35.672 132.182 35.672C132.806 35.672 133.366 35.528 133.862 35.24C134.358 34.936 134.718 34.496 134.942 33.92L135.518 35.648C135.246 36.48 134.75 37.112 134.03 37.544C133.31 37.976 132.382 38.192 131.246 38.192Z" fill="#252B42"/>
</svg>
